<mxfile host="app.diagrams.net" modified="2024-03-14T01:16:15.841Z" agent="Mozilla/5.0 (Windows NT 10.0; Win64; x64) AppleWebKit/537.36 (KHTML, like Gecko) Chrome/122.0.0.0 Safari/537.36" etag="7DP9cDjDowhaCS1cMtGV" version="24.0.6" type="github">
  <diagram name="페이지-1" id="P3Nq2Fa2dgJ9d-c3xMWh">
    <mxGraphModel dx="1674" dy="788" grid="1" gridSize="10" guides="1" tooltips="1" connect="1" arrows="1" fold="1" page="1" pageScale="1" pageWidth="827" pageHeight="1169" math="0" shadow="0">
      <root>
        <mxCell id="0" />
        <mxCell id="1" parent="0" />
        <mxCell id="qpK0XBQgyWGfgHsu3NeV-1" value="과목" style="whiteSpace=wrap;html=1;align=center;" parent="1" vertex="1">
          <mxGeometry x="500" y="250" width="100" height="40" as="geometry" />
        </mxCell>
        <mxCell id="qpK0XBQgyWGfgHsu3NeV-2" value="학과" style="whiteSpace=wrap;html=1;align=center;" parent="1" vertex="1">
          <mxGeometry x="270" y="380" width="100" height="40" as="geometry" />
        </mxCell>
        <mxCell id="qpK0XBQgyWGfgHsu3NeV-3" value="학생" style="whiteSpace=wrap;html=1;align=center;" parent="1" vertex="1">
          <mxGeometry x="160" y="250" width="100" height="40" as="geometry" />
        </mxCell>
        <mxCell id="qpK0XBQgyWGfgHsu3NeV-9" style="edgeStyle=none;curved=1;rounded=0;orthogonalLoop=1;jettySize=auto;html=1;exitX=0.5;exitY=1;exitDx=0;exitDy=0;fontSize=12;startSize=8;endSize=8;entryX=0;entryY=0.5;entryDx=0;entryDy=0;" parent="1" source="qpK0XBQgyWGfgHsu3NeV-4" edge="1" target="qpK0XBQgyWGfgHsu3NeV-3">
          <mxGeometry relative="1" as="geometry">
            <mxPoint x="210" y="240" as="targetPoint" />
          </mxGeometry>
        </mxCell>
        <mxCell id="qpK0XBQgyWGfgHsu3NeV-4" value="학생명" style="ellipse;whiteSpace=wrap;html=1;align=center;" parent="1" vertex="1">
          <mxGeometry x="10" y="260" width="100" height="40" as="geometry" />
        </mxCell>
        <mxCell id="qpK0XBQgyWGfgHsu3NeV-5" value="아이디" style="ellipse;whiteSpace=wrap;html=1;align=center;" parent="1" vertex="1">
          <mxGeometry x="40" y="150" width="100" height="40" as="geometry" />
        </mxCell>
        <mxCell id="qpK0XBQgyWGfgHsu3NeV-10" style="edgeStyle=none;curved=1;rounded=0;orthogonalLoop=1;jettySize=auto;html=1;exitX=0.5;exitY=1;exitDx=0;exitDy=0;entryX=0.5;entryY=1;entryDx=0;entryDy=0;fontSize=12;startSize=8;endSize=8;" parent="1" source="qpK0XBQgyWGfgHsu3NeV-6" target="qpK0XBQgyWGfgHsu3NeV-3" edge="1">
          <mxGeometry relative="1" as="geometry" />
        </mxCell>
        <mxCell id="qpK0XBQgyWGfgHsu3NeV-6" value="학과" style="ellipse;whiteSpace=wrap;html=1;align=center;" parent="1" vertex="1">
          <mxGeometry x="60" y="360" width="100" height="40" as="geometry" />
        </mxCell>
        <mxCell id="qpK0XBQgyWGfgHsu3NeV-8" style="edgeStyle=none;curved=1;rounded=0;orthogonalLoop=1;jettySize=auto;html=1;entryX=0.39;entryY=-0.05;entryDx=0;entryDy=0;entryPerimeter=0;fontSize=12;startSize=8;endSize=8;" parent="1" source="qpK0XBQgyWGfgHsu3NeV-5" target="qpK0XBQgyWGfgHsu3NeV-3" edge="1">
          <mxGeometry relative="1" as="geometry" />
        </mxCell>
        <mxCell id="qpK0XBQgyWGfgHsu3NeV-17" style="edgeStyle=none;curved=1;rounded=0;orthogonalLoop=1;jettySize=auto;html=1;exitX=0;exitY=1;exitDx=0;exitDy=0;entryX=0.5;entryY=0;entryDx=0;entryDy=0;fontSize=12;startSize=8;endSize=8;" parent="1" source="qpK0XBQgyWGfgHsu3NeV-11" edge="1">
          <mxGeometry relative="1" as="geometry">
            <mxPoint x="270" y="420" as="targetPoint" />
          </mxGeometry>
        </mxCell>
        <mxCell id="qpK0XBQgyWGfgHsu3NeV-11" value="학과코드" style="ellipse;whiteSpace=wrap;html=1;align=center;" parent="1" vertex="1">
          <mxGeometry x="190" y="510" width="100" height="40" as="geometry" />
        </mxCell>
        <mxCell id="qpK0XBQgyWGfgHsu3NeV-18" style="edgeStyle=none;curved=1;rounded=0;orthogonalLoop=1;jettySize=auto;html=1;exitX=0;exitY=0;exitDx=0;exitDy=0;fontSize=12;startSize=8;endSize=8;entryX=0.75;entryY=1;entryDx=0;entryDy=0;" parent="1" source="qpK0XBQgyWGfgHsu3NeV-12" edge="1" target="qpK0XBQgyWGfgHsu3NeV-2">
          <mxGeometry relative="1" as="geometry">
            <mxPoint x="160" y="610" as="targetPoint" />
          </mxGeometry>
        </mxCell>
        <mxCell id="qpK0XBQgyWGfgHsu3NeV-12" value="학과명" style="ellipse;whiteSpace=wrap;html=1;align=center;" parent="1" vertex="1">
          <mxGeometry x="340" y="500" width="100" height="40" as="geometry" />
        </mxCell>
        <mxCell id="qpK0XBQgyWGfgHsu3NeV-16" style="edgeStyle=none;curved=1;rounded=0;orthogonalLoop=1;jettySize=auto;html=1;exitX=0.5;exitY=0;exitDx=0;exitDy=0;fontSize=12;startSize=8;endSize=8;" parent="1" source="qpK0XBQgyWGfgHsu3NeV-13" edge="1">
          <mxGeometry relative="1" as="geometry">
            <mxPoint x="570" y="290" as="targetPoint" />
          </mxGeometry>
        </mxCell>
        <mxCell id="qpK0XBQgyWGfgHsu3NeV-13" value="과목" style="ellipse;whiteSpace=wrap;html=1;align=center;" parent="1" vertex="1">
          <mxGeometry x="590" y="350" width="100" height="40" as="geometry" />
        </mxCell>
        <mxCell id="qpK0XBQgyWGfgHsu3NeV-15" style="edgeStyle=none;curved=1;rounded=0;orthogonalLoop=1;jettySize=auto;html=1;exitX=0.5;exitY=0;exitDx=0;exitDy=0;fontSize=12;startSize=8;endSize=8;" parent="1" source="qpK0XBQgyWGfgHsu3NeV-14" edge="1">
          <mxGeometry relative="1" as="geometry">
            <mxPoint x="550" y="290" as="targetPoint" />
          </mxGeometry>
        </mxCell>
        <mxCell id="qpK0XBQgyWGfgHsu3NeV-14" value="과목번호" style="ellipse;whiteSpace=wrap;html=1;align=center;" parent="1" vertex="1">
          <mxGeometry x="440" y="340" width="100" height="40" as="geometry" />
        </mxCell>
        <mxCell id="6l-dd5-n2EWR0KXDz59w-3" value="" style="endArrow=none;html=1;rounded=0;fontSize=12;startSize=8;endSize=8;curved=1;exitX=0;exitY=0.5;exitDx=0;exitDy=0;entryX=1;entryY=0.5;entryDx=0;entryDy=0;" edge="1" parent="1" source="qpK0XBQgyWGfgHsu3NeV-1" target="qpK0XBQgyWGfgHsu3NeV-3">
          <mxGeometry width="50" height="50" relative="1" as="geometry">
            <mxPoint x="530" y="180" as="sourcePoint" />
            <mxPoint x="300" y="290" as="targetPoint" />
            <Array as="points" />
          </mxGeometry>
        </mxCell>
        <mxCell id="6l-dd5-n2EWR0KXDz59w-5" value="수강" style="shape=rhombus;perimeter=rhombusPerimeter;whiteSpace=wrap;html=1;align=center;" vertex="1" parent="1">
          <mxGeometry x="320" y="200" width="120" height="60" as="geometry" />
        </mxCell>
        <mxCell id="6l-dd5-n2EWR0KXDz59w-14" value="M" style="text;html=1;align=center;verticalAlign=middle;resizable=0;points=[];autosize=1;strokeColor=none;fillColor=none;fontSize=16;" vertex="1" parent="1">
          <mxGeometry x="260" y="240" width="40" height="30" as="geometry" />
        </mxCell>
        <mxCell id="6l-dd5-n2EWR0KXDz59w-16" value="N" style="text;html=1;align=center;verticalAlign=middle;resizable=0;points=[];autosize=1;strokeColor=none;fillColor=none;fontSize=16;" vertex="1" parent="1">
          <mxGeometry x="460" y="240" width="40" height="30" as="geometry" />
        </mxCell>
      </root>
    </mxGraphModel>
  </diagram>
</mxfile>
